<?xml version="1.0" encoding="utf-8"?>
<!-- Generator: Adobe Illustrator 28.2.0, SVG Export Plug-In . SVG Version: 6.00 Build 0)  -->
<svg version="1.1" xmlns="http://www.w3.org/2000/svg" xmlns:xlink="http://www.w3.org/1999/xlink" x="0px" y="0px"
	 viewBox="0 0 725.67 725.67" style="enable-background:new 0 0 725.67 725.67;" xml:space="preserve">
<style type="text/css">
	.st0{fill:url(#SVGID_1_);}
	.st1{fill:#CCE3F6;}
</style>
<g id="Layer_1">
	<linearGradient id="SVGID_1_" gradientUnits="userSpaceOnUse" x1="4.3876" y1="362.9563" x2="722.1024" y2="362.9563">
		<stop  offset="0" style="stop-color:#703F98"/>
		<stop  offset="0.1353" style="stop-color:#744294"/>
		<stop  offset="0.3734" style="stop-color:#814B90"/>
		<stop  offset="0.6863" style="stop-color:#935A89"/>
		<stop  offset="1" style="stop-color:#A3677F"/>
	</linearGradient>
	<path class="st0" d="M722.09,362.94c0.12,258.29-266,431.48-501.77,329.12C88.27,636.03-0.54,497.5,4.6,353.85
		C8.07,162.73,167.53,5.11,358.9,4.06c196.88-4.28,364.97,160.78,363.19,358.67V362.94z"/>
</g>
<g id="Layer_2">
	<path class="st1" d="M528.52,566.12c8.8,15.24,4.21,34.78-10.57,44.33c-6.04,3.9-12.2,7.66-18.49,11.3
		c-5.86,3.38-11.77,6.61-17.71,9.69c-15.78,8.16-35.18,2.57-44.06-12.81L302.73,384.87c-2.95-5.11-8.18-8.48-14.05-9.08
		c-32.81-3.33-69.3-6.25-101.89-10.31c-16.57-1.83-22.57-14.21-30.18-27c-7.75-13.45-17.59-30.26-25.26-43.83
		c-4.76-8.83-10.53-18.18-7.82-28.39c1.65-6.44,5.71-13.65,9.1-19.93c10.9-19.39,23.7-43.88,34.75-62.46
		c2.64-3.9,6.05-9.96,10.92-6.47c5.67,5,8.9,12.45,13.78,20.32c7.98,13.81,18.29,31.69,26.22,45.41
		c7.34,12.31,12.65,23.29,23.84,27.57c6.23,2.45,13.27,3.15,20.01,3.68c12.46,0.64,24.56,1.46,34.87-4.3
		c10.14-6.05,15.49-16.95,21.16-28.05c2.91-6.1,5.83-12.55,6.82-19.17c1.9-11.82-4.97-21.95-11.96-34.44
		c-7.91-13.72-18.24-31.59-26.21-45.41c-4.38-8.16-9.22-14.73-10.71-22.1c-0.58-6.02,6.36-5.82,11.06-6.22
		c21.61-0.3,49.25,0.87,71.47,1.14c7.13,0.19,15.41,0.29,21.81,2.08c11.66,3.27,16.94,15.21,22.96,24.83
		c6.98,12.03,16.18,27.97,23.05,39.93c7.25,12.99,14.99,24.36,8.29,39.64c-12.77,30.23-28.48,63.33-42.01,93.39
		c-2.42,5.38-2.11,11.6,0.84,16.71L528.52,566.12z"/>
</g>
</svg>
